<?xml version="1.0" encoding="UTF-8"?>
<svg width="32px" height="32px" viewBox="0 0 32 32" version="1.1" xmlns="http://www.w3.org/2000/svg">
    <title>Pharaoh Icon</title>
    <g stroke="none" stroke-width="1" fill="none" fill-rule="evenodd">
        <path d="M16,2 C17.1045695,2 18,2.8954305 18,4 L18,6 L20,6 C21.1045695,6 22,6.8954305 22,8 L22,10 L24,10 C25.1045695,10 26,10.8954305 26,12 L26,14 L28,14 C29.1045695,14 30,14.8954305 30,16 L30,28 C30,29.1045695 29.1045695,30 28,30 L4,30 C2.8954305,30 2,29.1045695 2,28 L2,16 C2,14.8954305 2.8954305,14 4,14 L6,14 L6,12 C6,10.8954305 6.8954305,10 8,10 L10,10 L10,8 C10,6.8954305 10.8954305,6 12,6 L14,6 L14,4 C14,2.8954305 14.8954305,2 16,2 Z" fill="#D4AF37"></path>
        <circle fill="#1A5276" cx="12" cy="18" r="2"></circle>
        <circle fill="#1A5276" cx="20" cy="18" r="2"></circle>
        <path d="M12,24 L20,24 C20,26.209139 18.209139,28 16,28 C13.790861,28 12,26.209139 12,24 Z" fill="#1A5276"></path>
    </g>
</svg>
